# xmcd
#
# Track frame offsets: 
#        183
#        13998
#        27418
#        41155
#        56508
#        69153
#        83960
#        99728
#        115150
#        129715
#        145128
#        160205
#        174790
#        189095
#        204375
#        219405
#        234490
#        247765
#
# Disc length: 3466 seconds
#
# Revision: 1
# Processed by: cddbd v1.5.1PL0 Copyright (c) Steve Scherf et al.
# Submitted via: ExactAudioCopy v0.90b4
#
DISCID=ef0d8812
DTITLE=Sonny Boy Williamson - Honey Bee Blues
DYEAR=1900
DGENRE=
TTITLE0=Honey Bee Blues
TTITLE1=Whiskey Headed Blues
TTITLE2=Lord, Oh Lord Blues
TTITLE3=Shannon Street Blues
TTITLE4=You've Been Foolin' Round Downtown
TTITLE5=Deep Down In The Ground
TTITLE6=Number Five Blues
TTITLE7=Christmas Morning Blues
TTITLE8=Susie Q
TTITLE9=Bluebird Blues Part 2
TTITLE10=Little Girl Blues
TTITLE11=Low Down Ways
TTITLE12=Goodbye Red
TTITLE13=The Right Kind Of Life
TTITLE14=Insurance Man Blues
TTITLE15=Rainy Day Blues
TTITLE16=Jackson Blues
TTITLE17=Got The Bottle Up And Gone
EXTD=
EXTT0=
EXTT1=
EXTT2=
EXTT3=
EXTT4=
EXTT5=
EXTT6=
EXTT7=
EXTT8=
EXTT9=
EXTT10=
EXTT11=
EXTT12=
EXTT13=
EXTT14=
EXTT15=
EXTT16=
EXTT17=
PLAYORDER=
